<?xml version="1.0" standalone="no"?>
<!DOCTYPE svg PUBLIC "-//W3C//DTD SVG 20010904//EN"
 "http://www.w3.org/TR/2001/REC-SVG-20010904/DTD/svg10.dtd">
<svg version="1.0" xmlns="http://www.w3.org/2000/svg"
 width="1024.000000pt" height="1024.000000pt" viewBox="0 0 1024.000000 1024.000000"
 preserveAspectRatio="xMidYMid meet">

<g transform="translate(0.000000,1024.000000) scale(0.100000,-0.100000)"
fill="#000000" stroke="none">
<path d="M7045 10204 c-301 -50 -596 -277 -731 -564 -96 -204 -111 -463 -40
-692 16 -52 14 -58 -26 -58 -62 0 -220 -85 -331 -178 -24 -20 -105 -91 -178
-157 -74 -66 -177 -156 -229 -200 -208 -175 -629 -573 -1001 -944 -152 -152
-286 -284 -297 -294 -18 -17 -27 -17 -75 -8 -96 21 -249 29 -361 20 -321 -26
-613 -162 -836 -389 -341 -346 -457 -846 -303 -1301 l36 -106 -66 -100 c-102
-155 -212 -343 -303 -518 -353 -683 -556 -1455 -531 -2025 6 -136 29 -341 47
-415 36 -156 58 -234 92 -335 47 -137 52 -147 134 -315 90 -182 113 -220 223
-375 376 -528 945 -931 1571 -1113 261 -76 439 -94 503 -52 27 17 30 17 105
-4 125 -35 209 -50 345 -62 107 -9 152 -8 279 6 118 13 180 15 277 8 214 -14
475 -9 566 11 144 31 312 80 395 114 14 6 68 27 120 48 91 36 302 135 365 172
180 104 373 265 507 422 346 407 518 977 520 1725 0 287 -10 448 -48 755 -43
357 -95 631 -208 1100 -24 102 -47 199 -51 217 -5 26 -1 41 25 78 48 70 108
204 132 297 32 118 31 366 0 482 -75 272 -258 503 -507 639 l-77 42 -68 202
c-37 112 -70 213 -73 225 -3 13 -14 57 -26 98 -12 41 -33 134 -47 205 -23 115
-26 154 -27 345 0 223 1 232 62 580 44 245 54 349 47 490 -10 234 -52 334
-206 495 -98 103 -128 150 -167 261 -24 70 -27 94 -28 209 0 135 10 185 58
280 49 99 182 235 282 288 179 96 373 112 464 39 62 -49 101 -117 101 -174 0
-81 -49 -152 -117 -172 -13 -3 -32 -8 -42 -11 -13 -4 -34 7 -65 34 -26 22 -63
45 -84 52 -107 32 -219 -73 -198 -185 7 -37 89 -141 129 -163 137 -76 279 -77
428 -3 102 52 190 149 236 263 36 89 42 239 14 326 -36 108 -112 215 -206 286
-80 62 -158 92 -265 105 -105 11 -142 11 -245 -6z m-574 -1640 c138 -41 189
-186 160 -459 -13 -115 -45 -328 -62 -405 -19 -86 -49 -386 -49 -493 0 -163
17 -299 71 -552 7 -36 35 -132 102 -350 l24 -80 -31 -2 c-114 -9 -233 -28
-305 -50 -193 -55 -383 -185 -509 -347 -12 -16 -24 -27 -27 -24 -6 5 -22 125
-30 223 -3 39 -10 113 -15 165 -10 105 -26 365 -35 595 -5 120 -11 158 -26
192 -34 70 -110 104 -187 84 -44 -12 -77 -47 -217 -230 -38 -51 -90 -118 -115
-150 -25 -32 -70 -91 -100 -131 -30 -40 -64 -84 -76 -98 l-21 -25 -37 67 c-89
159 -229 312 -386 419 l-81 55 213 214 c371 372 775 751 1063 997 94 79 193
166 220 192 78 75 185 157 239 184 60 30 136 33 217 9z m-2317 -1783 c351 -93
611 -365 682 -712 22 -109 15 -291 -16 -403 -107 -396 -472 -688 -900 -722
l-85 -6 70 50 c180 127 282 307 293 513 16 326 -203 611 -533 695 -90 22 -256
23 -347 1 -136 -33 -284 -119 -366 -212 -22 -25 -42 -45 -44 -45 -9 0 11 102
33 175 104 343 411 610 782 681 104 20 329 12 431 -15z m1310 -406 c21 -268
29 -351 51 -545 31 -262 72 -520 120 -765 26 -130 66 -320 75 -360 5 -22 28
-128 50 -235 23 -107 45 -213 50 -235 41 -178 113 -614 145 -880 48 -401 57
-943 20 -1215 -55 -407 -186 -801 -368 -1102 -107 -178 -168 -262 -258 -355
-146 -150 -290 -212 -494 -213 -252 0 -520 107 -800 319 -274 207 -539 609
-674 1021 -112 339 -154 603 -154 960 0 278 18 425 82 671 92 348 301 725 615
1106 l50 61 87 16 c472 86 871 430 1017 876 42 128 55 211 58 383 l4 168 120
157 c169 220 194 252 196 249 1 -1 5 -38 8 -82z m1043 -511 c-144 -112 -216
-335 -168 -519 27 -101 69 -171 148 -245 74 -69 141 -104 246 -127 67 -14 90
-15 159 -5 145 21 277 102 353 218 60 90 86 178 86 287 0 51 -3 102 -6 112
-13 40 26 -17 61 -89 95 -196 84 -447 -28 -633 -183 -303 -569 -423 -917 -284
-171 69 -330 226 -398 394 -152 373 46 791 432 913 73 23 82 17 32 -22z
m-3393 -1044 c104 -70 239 -133 356 -166 52 -15 97 -28 98 -30 4 -2 -15 -29
-83 -124 -60 -83 -171 -254 -217 -335 -185 -323 -305 -691 -349 -1070 -19
-158 -16 -519 5 -690 34 -284 98 -554 186 -790 44 -120 179 -400 231 -480 171
-266 299 -420 509 -610 50 -45 61 -59 47 -63 -47 -10 -352 117 -535 224 -700
409 -1152 1060 -1253 1804 -19 136 -16 466 5 625 78 591 314 1222 678 1813
l70 113 87 -84 c48 -46 122 -107 165 -137z m3105 -469 c175 -88 288 -116 481
-116 190 0 316 30 470 111 30 16 58 30 61 32 15 7 131 -523 183 -833 64 -382
88 -661 88 -1015 -1 -346 -24 -553 -94 -820 -112 -430 -342 -768 -675 -993
-139 -94 -386 -208 -643 -297 -67 -24 -174 -50 -255 -64 -94 -17 -350 -22
-359 -8 -2 4 16 26 40 47 42 37 171 184 204 231 176 256 269 425 360 654 118
295 181 554 221 907 19 168 21 222 16 503 -4 173 -11 369 -16 434 -30 341
-103 828 -177 1168 -15 73 -18 108 -7 108 4 0 50 -22 102 -49z"/>
</g>
</svg>
