<svg xmlns="http://www.w3.org/2000/svg" xmlns:xlink="http://www.w3.org/1999/xlink" version="1.1" width="256" height="256" viewBox="0 0 256 256" xml:space="preserve">
<desc>Created with Fabric.js 1.7.22</desc>
<defs>
</defs>
<g transform="translate(128 128) scale(0.72 0.72)" style="">
	<g style="stroke: none; stroke-width: 0; stroke-dasharray: none; stroke-linecap: butt; stroke-linejoin: miter; stroke-miterlimit: 10; fill: none; fill-rule: nonzero; opacity: 1;" transform="translate(-175.05 -175.05) scale(3.89 3.89)" >
	<path d="M 89.475 31.953 c -0.56 -0.816 -1.485 -1.304 -2.475 -1.304 H 73.97 v -9.181 c 0 -1.657 -1.343 -3 -3 -3 H 30.857 l -2.408 -4.916 c -0.504 -1.028 -1.549 -1.68 -2.694 -1.68 H 3 c -1.657 0 -3 1.343 -3 3 v 60.254 c 0 0.071 0.016 0.137 0.021 0.207 c 0.006 0.083 0.012 0.164 0.025 0.246 c 0.024 0.158 0.063 0.309 0.11 0.458 c 0.02 0.061 0.033 0.123 0.057 0.183 c 0.083 0.211 0.184 0.412 0.31 0.596 c 0.001 0.002 0.002 0.005 0.003 0.007 c 0.009 0.013 0.022 0.023 0.031 0.036 c 0.118 0.166 0.254 0.318 0.402 0.456 c 0.052 0.049 0.109 0.091 0.164 0.135 c 0.119 0.096 0.243 0.183 0.376 0.26 c 0.065 0.038 0.129 0.074 0.196 0.107 c 0.143 0.069 0.292 0.124 0.446 0.17 c 0.062 0.019 0.12 0.042 0.184 0.057 c 0.218 0.05 0.442 0.083 0.675 0.083 h 67.97 c 1.239 0 2.352 -0.763 2.798 -1.919 l 16.03 -41.477 C 90.155 33.808 90.034 32.769 89.475 31.953 z M 23.884 17.873 l 2.408 4.916 c 0.504 1.028 1.549 1.68 2.694 1.68 H 67.97 v 6.181 H 19.03 c -1.24 0 -2.352 0.762 -2.798 1.918 L 6 59.042 v -41.17 H 23.884 z" style="stroke: none; stroke-width: 1; stroke-dasharray: none; stroke-linecap: butt; stroke-linejoin: miter; stroke-miterlimit: 10; fill: rgb(0,0,0); fill-rule: nonzero; opacity: 1;" transform=" matrix(1 0 0 1 0 0) " stroke-linecap="round" />
</g>
</g>
</svg>