<svg xmlns="http://www.w3.org/2000/svg" xmlns:xlink="http://www.w3.org/1999/xlink" version="1.1" width="256" height="256" viewBox="0 0 256 256" xml:space="preserve">
<desc>Created with Fabric.js 1.7.22</desc>
<defs>
</defs>
<g transform="translate(128 128) scale(0.72 0.72)" style="">
	<g style="stroke: none; stroke-width: 0; stroke-dasharray: none; stroke-linecap: butt; stroke-linejoin: miter; stroke-miterlimit: 10; fill: none; fill-rule: nonzero; opacity: 1;" transform="translate(-175.05 -175.05) scale(3.89 3.89)" >
	<path d="M 31.656 39.145 h -3.003 v -3.003 c 0 -1.791 -1.457 -3.248 -3.247 -3.248 c -1.791 0 -3.247 1.457 -3.247 3.248 v 3.003 h -3.003 c -1.791 0 -3.247 1.457 -3.247 3.247 c 0 1.791 1.457 3.248 3.247 3.248 h 3.003 v 3.003 c 0 1.791 1.457 3.247 3.247 3.247 c 1.791 0 3.247 -1.457 3.247 -3.247 V 45.64 h 3.003 c 1.791 0 3.247 -1.457 3.247 -3.248 C 34.903 40.602 33.446 39.145 31.656 39.145 z" style="stroke: none; stroke-width: 1; stroke-dasharray: none; stroke-linecap: butt; stroke-linejoin: miter; stroke-miterlimit: 10; fill: rgb(0,0,0); fill-rule: nonzero; opacity: 1;" transform=" matrix(1 0 0 1 0 0) " stroke-linecap="round" />
	<path d="M 58.06 40.536 c -1.124 0 -2.039 0.915 -2.039 2.039 s 0.914 2.039 2.039 2.039 s 2.04 -0.915 2.04 -2.039 S 59.184 40.536 58.06 40.536 z" style="stroke: none; stroke-width: 1; stroke-dasharray: none; stroke-linecap: butt; stroke-linejoin: miter; stroke-miterlimit: 10; fill: rgb(0,0,0); fill-rule: nonzero; opacity: 1;" transform=" matrix(1 0 0 1 0 0) " stroke-linecap="round" />
	<path d="M 65.355 47.831 c -1.124 0 -2.04 0.914 -2.04 2.039 s 0.915 2.04 2.04 2.04 s 2.039 -0.915 2.039 -2.04 S 66.48 47.831 65.355 47.831 z" style="stroke: none; stroke-width: 1; stroke-dasharray: none; stroke-linecap: butt; stroke-linejoin: miter; stroke-miterlimit: 10; fill: rgb(0,0,0); fill-rule: nonzero; opacity: 1;" transform=" matrix(1 0 0 1 0 0) " stroke-linecap="round" />
	<path d="M 65.355 37.319 c 1.124 0 2.039 -0.915 2.039 -2.039 s -0.914 -2.039 -2.039 -2.039 s -2.04 0.915 -2.04 2.039 S 64.231 37.319 65.355 37.319 z" style="stroke: none; stroke-width: 1; stroke-dasharray: none; stroke-linecap: butt; stroke-linejoin: miter; stroke-miterlimit: 10; fill: rgb(0,0,0); fill-rule: nonzero; opacity: 1;" transform=" matrix(1 0 0 1 0 0) " stroke-linecap="round" />
	<path d="M 72.231 17.601 c -3.31 -1.291 -8.422 0.205 -14.342 1.936 C 53.467 20.83 48.893 22.168 45 22.313 c -4.346 0 -9.373 -1.518 -13.807 -2.858 c -5.496 -1.66 -10.243 -3.095 -13.366 -1.875 C 7.817 20.797 -2.802 56.227 0.674 68.226 c 0.885 3.057 2.665 4.664 5.062 4.664 c 0.506 0 1.039 -0.071 1.597 -0.216 c 4.644 -0.935 9.571 -3.191 14.789 -5.581 c 7.423 -3.4 15.099 -6.915 22.876 -7.098 c 8.066 0.248 15.694 3.76 23.07 7.156 c 5.129 2.361 9.973 4.591 14.549 5.511 c 3.253 0.844 5.64 -0.732 6.711 -4.435 C 92.802 56.227 82.183 20.797 72.231 17.601 z M 31.656 47.641 h -1.003 v 1.002 c 0 2.894 -2.354 5.248 -5.248 5.248 c -2.893 0 -5.248 -2.354 -5.248 -5.248 v -1.002 h -1.003 c -2.894 0 -5.248 -2.354 -5.248 -5.248 c 0 -2.894 2.354 -5.248 5.248 -5.248 h 1.003 v -1.002 c 0 -2.894 2.354 -5.248 5.248 -5.248 c 2.894 0 5.248 2.354 5.248 5.248 v 1.002 h 1.003 c 2.893 0 5.248 2.354 5.248 5.248 C 36.904 45.286 34.549 47.641 31.656 47.641 z M 65.355 31.24 c 2.227 0 4.039 1.812 4.039 4.04 s -1.812 4.04 -4.039 4.04 c -2.228 0 -4.04 -1.812 -4.04 -4.04 S 63.127 31.24 65.355 31.24 z M 58.06 46.615 c -2.227 0 -4.039 -1.812 -4.039 -4.04 s 1.812 -4.04 4.039 -4.04 c 2.228 0 4.04 1.812 4.04 4.04 S 60.288 46.615 58.06 46.615 z M 65.355 53.91 c -2.228 0 -4.04 -1.812 -4.04 -4.04 c 0 -2.227 1.812 -4.039 4.04 -4.039 c 2.227 0 4.039 1.812 4.039 4.039 C 69.395 52.098 67.583 53.91 65.355 53.91 z M 72.65 46.615 c -2.227 0 -4.039 -1.812 -4.039 -4.04 s 1.812 -4.04 4.039 -4.04 c 2.228 0 4.04 1.812 4.04 4.04 S 74.878 46.615 72.65 46.615 z" style="stroke: none; stroke-width: 1; stroke-dasharray: none; stroke-linecap: butt; stroke-linejoin: miter; stroke-miterlimit: 10; fill: rgb(0,0,0); fill-rule: nonzero; opacity: 1;" transform=" matrix(1 0 0 1 0 0) " stroke-linecap="round" />
	<path d="M 72.65 40.536 c -1.124 0 -2.039 0.915 -2.039 2.039 s 0.914 2.039 2.039 2.039 s 2.04 -0.915 2.04 -2.039 S 73.774 40.536 72.65 40.536 z" style="stroke: none; stroke-width: 1; stroke-dasharray: none; stroke-linecap: butt; stroke-linejoin: miter; stroke-miterlimit: 10; fill: rgb(0,0,0); fill-rule: nonzero; opacity: 1;" transform=" matrix(1 0 0 1 0 0) " stroke-linecap="round" />
</g>
</g>
</svg>