<svg xmlns="http://www.w3.org/2000/svg" xmlns:xlink="http://www.w3.org/1999/xlink" version="1.1" width="256" height="256" viewBox="0 0 256 256" xml:space="preserve">
<desc>Created with Fabric.js 1.7.22</desc>
<defs>
</defs>
<g transform="translate(128 128) scale(0.72 0.72)" style="">
	<g style="stroke: none; stroke-width: 0; stroke-dasharray: none; stroke-linecap: butt; stroke-linejoin: miter; stroke-miterlimit: 10; fill: none; fill-rule: nonzero; opacity: 1;" transform="translate(-175.05 -175.05) scale(3.89 3.89)" >
	<path d="M 75.702 53.014 c -2.142 7.995 -7.27 14.678 -14.439 18.816 c -7.168 4.138 -15.519 5.239 -23.514 3.095 c -16.505 -4.423 -26.335 -21.448 -21.913 -37.953 C 20.258 20.467 37.286 10.64 53.79 15.06 c 4.213 1.129 8.076 3.118 11.413 5.809 l -8.349 8.35 h 26.654 V 2.565 l -8.354 8.354 c -5.1 -4.405 -11.133 -7.61 -17.74 -9.381 C 33.451 -4.882 8.735 9.389 2.314 33.35 c -6.42 23.961 7.851 48.678 31.811 55.098 C 38.001 89.486 41.934 90 45.842 90 c 7.795 0 15.488 -2.044 22.42 -6.046 c 10.407 -6.008 17.851 -15.709 20.962 -27.317 L 75.702 53.014 z" style="stroke: none; stroke-width: 1; stroke-dasharray: none; stroke-linecap: butt; stroke-linejoin: miter; stroke-miterlimit: 10; fill: rgb(0,0,0); fill-rule: nonzero; opacity: 1;" transform=" matrix(1 0 0 1 0 0) " stroke-linecap="round" />
</g>
</g>
</svg>