<svg xmlns="http://www.w3.org/2000/svg" xmlns:xlink="http://www.w3.org/1999/xlink" version="1.1" width="256" height="256" viewBox="0 0 256 256" xml:space="preserve">
<desc>Created with Fabric.js 1.7.22</desc>
<defs>
</defs>
<g transform="translate(128 128) scale(0.72 0.72)" style="">
	<g style="stroke: none; stroke-width: 0; stroke-dasharray: none; stroke-linecap: butt; stroke-linejoin: miter; stroke-miterlimit: 10; fill: none; fill-rule: nonzero; opacity: 1;" transform="translate(-175.05 -175.05) scale(3.89 3.89)" >
	<path d="M 45 2.024 C 45 2.024 45 2.024 45 2.024 c -1.398 0 -2.649 0.778 -3.268 2.031 L 29.959 27.911 c -0.099 0.2 -0.29 0.338 -0.51 0.37 L 3.122 32.107 c -1.383 0.201 -2.509 1.151 -2.941 2.48 c -0.432 1.329 -0.079 2.76 0.922 3.736 l 19.049 18.569 c 0.16 0.156 0.233 0.38 0.195 0.599 L 15.85 83.71 c -0.236 1.377 0.319 2.743 1.449 3.564 c 1.129 0.821 2.6 0.927 3.839 0.279 l 23.547 -12.381 c 0.098 -0.051 0.206 -0.077 0.314 -0.077 C 51.721 53.905 50.301 28.878 45 2.024 z" style="stroke: none; stroke-width: 1; stroke-dasharray: none; stroke-linecap: butt; stroke-linejoin: miter; stroke-miterlimit: 10; fill: rgb(255,200,80); fill-rule: nonzero; opacity: 1;" transform=" matrix(1 0 0 1 0 0) " stroke-linecap="round" />
	<path d="M 45 2.024 C 45 2.024 45 2.024 45 2.024 c 1.398 0 2.649 0.778 3.268 2.031 l 11.773 23.856 c 0.099 0.2 0.29 0.338 0.51 0.37 l 26.326 3.826 c 1.383 0.201 2.509 1.151 2.941 2.48 c 0.432 1.329 0.079 2.76 -0.922 3.736 L 69.847 56.892 c -0.16 0.156 -0.233 0.38 -0.195 0.599 L 74.15 83.71 c 0.236 1.377 -0.319 2.743 -1.449 3.564 c -1.129 0.821 -2.6 0.927 -3.839 0.279 L 45.315 75.172 c -0.098 -0.051 -0.206 -0.077 -0.314 -0.077 C 37.08 54.593 38.849 29.395 45 2.024 z" style="stroke: none; stroke-width: 1; stroke-dasharray: none; stroke-linecap: butt; stroke-linejoin: miter; stroke-miterlimit: 10; fill: rgb(255,220,100); fill-rule: nonzero; opacity: 1;" transform=" matrix(1 0 0 1 0 0) " stroke-linecap="round" />
</g>
</g>
</svg>