<svg xmlns="http://www.w3.org/2000/svg" xmlns:xlink="http://www.w3.org/1999/xlink" version="1.1" width="256" height="256" viewBox="0 0 256 256" xml:space="preserve">
<desc>Created with Fabric.js 1.7.22</desc>
<defs>
</defs>
<g transform="translate(128 128) scale(0.72 0.72)" style="">
	<g style="stroke: none; stroke-width: 0; stroke-dasharray: none; stroke-linecap: butt; stroke-linejoin: miter; stroke-miterlimit: 10; fill: none; fill-rule: nonzero; opacity: 1;" transform="translate(-175.05 -175.05) scale(3.89 3.89)" >
	<path d="M 87.12 73.212 L 48.774 34.866 c 3.723 -9.153 1.873 -20.042 -5.553 -27.468 c -7.008 -7.008 -17.094 -9.025 -25.9 -6.104 L 28.96 12.934 c 4.387 4.387 4.833 11.594 0.579 16.112 c -4.402 4.674 -11.761 4.757 -16.268 0.25 L 1.295 17.32 c -2.922 8.807 -0.904 18.892 6.104 25.9 c 7.426 7.426 18.315 9.276 27.468 5.553 L 73.212 87.12 c 3.84 3.84 10.067 3.84 13.908 0 l 0 0 C 90.96 83.279 90.96 77.052 87.12 73.212 z" style="stroke: none; stroke-width: 1; stroke-dasharray: none; stroke-linecap: butt; stroke-linejoin: miter; stroke-miterlimit: 10; fill: rgb(0,0,0); fill-rule: nonzero; opacity: 1;" transform=" matrix(1 0 0 1 0 0) " stroke-linecap="round" />
</g>
</g>
</svg>